# xmcd
#
# Track frame offsets:
#	150
#	15250
#	25750
#	37875
#	49450
#	77360
#	90485
#	103685
#	115685
#	125910
#	133660
#	144035
#	155110
#	172735
#	183625
#	196470
#	206685
#	219910
#
# Disc length: 3106
#
# Revision: 1
# Processed by: cddbd v1.5.1PL0 Copyright (c) Steve Scherf et al.
# Submitted via: EasyCDDAExtractor 4.5.0.1
# Normalized: r0:TDELIM( - )
#
DISCID=ea0c2012
DTITLE=Various Artist - Desperado - Best of country CD 1
DYEAR=1995
DGENRE=country
TTITLE0=Lynn Anderson - Desperado
TTITLE1=Roger Miller - King of the road
TTITLE2=Billie Jo Spears - Misty Blue
TTITLE3=Kenny Rogers - Calico Silver
TTITLE4=Marshall Tucker Band - Take the highway
TTITLE5=Lynn Anderson - Rose garden
TTITLE6=Conway Twitty - After all the good is gone
TTITLE7=Jean Shepard - A dear John Letter
TTITLE8=Waylon Jennings - White lightning
TTITLE9=Roger Miller - Dang me
TTITLE10=Ferlin Husky - The wings of a dove
TTITLE11=The Dillards - Big bayou
TTITLE12=Marshall Tucker Band - Fire on the mountain
TTITLE13=Johnny Paycheck - A-11
TTITLE14=Johnny Paycheck - Take this job and shove it
TTITLE15=Carl Perkins - Daddy sang bass
TTITLE16=Faron Young - Swinging doors
TTITLE17=Conway Twitty - Danny Boy
EXTD=
EXTT0=
EXTT1=
EXTT2=
EXTT3=
EXTT4=
EXTT5=
EXTT6=
EXTT7=
EXTT8=
EXTT9=
EXTT10=
EXTT11=
EXTT12=
EXTT13=
EXTT14=
EXTT15=
EXTT16=
EXTT17=
PLAYORDER=
